. 
  
http://www.torrentday.com/        :     The Hottest Private Tracker On The Net!!!
 
http://www.torrentday.com          :     Once & For all ;)


               www . TorrentDay . Com 

(((((((((((((= Enjoy No RAR releases =))))))))))))))))))))


...................................NFO:....................................

.[img]http://img535.imageshack.us/img535/5933/beverlyhillschihuahua2s.jpg[/img]

Beverly Hills Chihuahua 2 2011 BDRip XVID AC3 HQ Hive-CM8



[b]Thx Hive

CM8 Doing It Right The First Time :D

Why download a touched up rip of a rip BRrip
Get the real deal BDRip
Enjoy

Source US Bluray

Video: 720x400 @bitrate 2200 2pass
Audio: DTS to AC3 5.1 @448
Sample: yes included[/b] 
http://www.imdb.com/title/tt1482393/


General
Complete name                    : Beverly.Hills.Chihuahua.2.2011.BDRip.XVID.AC3.HQ.Hive-CM8.avi
Format                           : AVI
Format/Info                      : Audio Video Interleave
File size                        : 1.55 GiB
Duration                         : 1h 23mn
Overall bit rate                 : 2 657 Kbps
Writing application              : Nandub v1.0rc2
Writing library                  : Nandub build 1853/release

Video
ID                               : 0
Format                           : MPEG-4 Visual
Format profile                   : Advanced Simple@L5
Format settings, BVOP            : Yes
Format settings, QPel            : Yes
Format settings, GMC             : No warppoints
Format settings, Matrix          : Default (H.263)
Muxing mode                      : Packed bitstream
Codec ID                         : XVID
Codec ID/Hint                    : XviD
Duration                         : 1h 23mn
Bit rate                         : 2 199 Kbps
Width                            : 720 pixels
Height                           : 400 pixels
Display aspect ratio             : 16:9
Frame rate                       : 23.976 fps
Color space                      : YUV
Chroma subsampling               : 4:2:0
Bit depth                        : 8 bits
Scan type                        : Progressive
Bits/(Pixel*Frame)               : 0.319
Stream size                      : 1.29 GiB (83%)
Writing library                  : XviD 1.2.1 (UTC 2008-12-04)

Audio
ID                               : 1
Format                           : AC-3
Format/Info                      : Audio Coding 3
Mode extension                   : CM (complete main)
Codec ID                         : 2000
Duration                         : 1h 23mn
Bit rate mode                    : Constant
Bit rate                         : 448 Kbps
Channel(s)                       : 6 channels
Channel positions                : Front: L C R, Side: L R, LFE
Sampling rate                    : 48.0 KHz
Bit depth                        : 16 bits
Stream size                      : 268 MiB (17%)
Alignment                        : Split accross interleaves
Interleave, duration             : 42 ms (1.00 video frame)
Interleave, preload duration     : 500 ms




Christine Lakin   ...News Reporter
Odette Yustman  ... Chloe (voice)
Emily Osment  	... Pep (voice)
Bridgit Mendler  ...Appoline
Madison Pettis 	 ... Lala (voice)
Elaine Hendrix 	 ... Colleen Mansfield - Appoline's Owner
Olivia Newton-John  		
Ernie Hudson  	... Pedro (voice)
George Lopez  	... Papi (voice) 



The family just got bigger.



[img]http://img6.imageshack.us/img6/1893/67282840.png[/img]
[img]http://img824.imageshack.us/img824/6968/bbbbeeebebebee.png[/img]
[img]http://img217.imageshack.us/img217/2880/bbbeebebebee.png[/img]
[img]http://img209.imageshack.us/img209/175/bbebbbeeebebebee.png[/img]
[img]http://img191.imageshack.us/img191/7721/bbebebbbeeebebebee.png[/img]
[img]http://img96.imageshack.us/img96/9764/bbebebebee.png[/img]
[img]http://img830.imageshack.us/img830/8260/bbebebee.png[/img]
[img]http://img37.imageshack.us/img37/7817/bbebee.png[/img]
[img]http://img140.imageshack.us/img140/9881/bbee.png[/img]




Greetz

iNK,LUSi,,MAGNET,CLASSiFiED,THC,LEGi0N,T0XiC,IMAGiNE,ViSiON,WBZ,FLAWL3SS,NOVA
Vik,Rapeseed,D2U,SAFC,goldadvance,MEMORY100,KaN1vE,Unevano,Pinnz,Wayne,Mr Hive
and all P2P groups 
Great Work Guys :D